<svg fill="none" height="512" viewBox="0 0 768 512" width="768" xmlns="http://www.w3.org/2000/svg" xmlns:xlink="http://www.w3.org/1999/xlink"><clipPath id="a"><path d="m0 0h768v512h-768z"/></clipPath><g clip-path="url(#a)"><path d="m0 0h768v512h-768z" fill="#fff"/><path d="m0 0h768v256h-768z" fill="#30d5c8"/><path d="m0 256h768v256h-768z" fill="#20bbcc"/><g fill="#fff"><path d="m258.053 280.536c24.527 126.84 192.697 138.065 243.142 26.874-34.934-19.083-79.402.454-121.506 13.171-64.139 18.373-99.986 4.428-121.641-40.045z"/><path d="m504.512 298.699c-18.957-15.814-59.319-14.839-92.018-2.514-45.609 15.575-97.666 40.54-135.037 3.336 39.443 23.218 75.991 7.618 120.106-16.91 41.129-21.181 82.954-21.831 111.926-1.605-.986 5.337-2.733 11.167-4.972 17.698z"/><path d="m400.353 277.29c-12.594 7.437-27.734 14.647-45.347 21.121-14.227 4.651-26.902 6.696-38.047 6.696-32.372 0-51.836-17.264-58.803-38.247-.035-.093-.065-.186-.096-.283-.187-.572-.365-1.154-.532-1.73-.152-.536-.289-1.062-.411-1.587-.142-.804-.279-1.596-.406-2.385-.77-4.897-.897-9.868-.466-14.812.066-.731.137-1.463.213-2.194 3.686-35.311 22.227-68.876 48.871-88.746-39.304 39.843-37.433 84.059-7.357 111.134 23.201 22.245 62.149 26.638 102.381 11.033z"/><path d="m459.118 169.892c-55.693-26.414-109.544.085-129.508 16.636 36.345-22.523 86.766-15.101 91.629-13.565 72.176 19.708 91.116 58.611 90.348 91.628 4.863-59.379-34.467-85.741-52.469-94.699z"/><path d="m299.94 248.327c.002.002.003.004.005.006l-.005-.005v-.001c-29.178-34.92-9.528-98.351 53.53-116.454 63.93-15.473 117.88 17.465 142.606 62.398 2.817 5.119 6.912 14.089 7.68 16.648-12.695-24.228-39.102-48.749-68.973-55.544-34.04-6.825-66.626-2.229-97.086 19.176-28.474 21.415-41.286 45.958-37.757 73.776z"/></g><path d="m2.5 2.5h763v507h-763z" stroke="#177781" stroke-width="5"/></g></svg>
