<svg fill="none" height="512" viewBox="0 0 512 512" width="512" xmlns="http://www.w3.org/2000/svg"><path d="m71.4318 292.464c36.0242 186.296 283.0242 202.782 357.1142 39.471-51.309-28.028-116.622.667-178.461 19.345-94.204 26.985-146.854 6.504-178.6607-58.816z" fill="#20bbcc"/><g fill="#30d5c8"><path d="m433.417 319.141c-27.842-23.227-87.124-21.794-135.15-3.693-66.987 22.877-143.446 59.544-198.3345 4.901 57.9315 34.101 111.6115 11.188 176.4055-24.837 60.408-31.11 121.837-32.065 164.39-2.357-1.448 7.839-4.014 16.401-7.303 25.993z"/><path d="m280.435 287.696c-18.498 10.923-40.734 21.514-66.604 31.022-20.895 6.831-39.512 9.834-55.88 9.834-47.547 0-76.1348-25.356-86.3667-56.174-.0521-.137-.0969-.273-.1415-.416-.2756-.84-.5362-1.695-.7819-2.542-.2234-.787-.4245-1.558-.6032-2.33-.2085-1.18-.4096-2.345-.5957-3.502-1.132-7.194-1.3181-14.494-.6852-21.756.0969-1.074.2011-2.148.3128-3.223 5.4137-51.862 32.6464-101.161 71.7784-130.345-57.7263 58.52-54.9783 123.461-10.805 163.228 34.076 32.672 91.282 39.124 150.372 16.204z"/><path d="m366.746 129.955c-81.8-38.7942-160.893.126-190.214 24.435 53.38-33.081 127.436-22.179 134.578-19.923 106.009 28.945 133.827 86.085 132.699 134.578 7.143-87.213-50.623-125.932-77.063-139.09z"/></g><path d="m132.953 245.157c.003.003.005.006.008.009l-.007-.007-.001-.002c-42.8538-51.288-13.994-144.452 78.623-171.0408 93.897-22.7267 173.135 25.6516 209.452 91.6458 4.137 7.519 10.152 20.693 11.28 24.452-18.647-35.585-57.432-71.599-101.304-81.579-49.996-10.0242-97.858-3.274-142.595 28.164-41.821 31.453-60.638 67.5-55.456 108.358z" fill="#20bbcc"/></svg>
